<svg width="24" height="38" viewBox="0 0 24 38" fill="none" xmlns="http://www.w3.org/2000/svg">
<path d="M5 11.25H6.25V12.5H5V11.25Z" fill="black"/>
<path d="M7.5 11.25H8.75V12.5H7.5V11.25Z" fill="black"/>
<path d="M10 11.25H11.25V12.5H10V11.25Z" fill="black"/>
<path d="M12.5 11.25H13.75V12.5H12.5V11.25Z" fill="black"/>
<path d="M15 11.25H16.25V12.5H15V11.25Z" fill="black"/>
<path d="M7.5 33.75H8.75V35H7.5V33.75Z" fill="black"/>
<path d="M10 33.75H11.25V35H10V33.75Z" fill="black"/>
<path d="M12.5 33.75H13.75V35H12.5V33.75Z" fill="black"/>
<path d="M15 33.75H16.25V35H15V33.75Z" fill="black"/>
<path d="M17.5 11.25H18.75V12.5H17.5V11.25Z" fill="black"/>
<path d="M21.875 5H21.25V2.5C21.2491 2.33595 21.1838 2.17881 21.0681 2.0625L19.2062 0.1875C19.1484 0.128519 19.0795 0.0815814 19.0035 0.0493984C18.9274 0.0172154 18.8457 0.000425812 18.7631 0H5C4.83425 3.53984e-05 4.67531 0.0659066 4.55812 0.183125L2.68312 2.05813C2.56591 2.17531 2.50004 2.33425 2.5 2.5V5H1.875C1.37772 5 0.900805 5.19754 0.549175 5.54917C0.197544 5.90081 0 6.37772 0 6.875V8.125C0 8.62228 0.197544 9.09919 0.549175 9.45083C0.900805 9.80246 1.37772 10 1.875 10H2.52813L2.8125 16.25H2.5C2.41523 16.2499 2.33132 16.267 2.25338 16.3004C2.17544 16.3337 2.1051 16.3826 2.04663 16.444C1.98817 16.5054 1.9428 16.578 1.9133 16.6575C1.88379 16.7369 1.87076 16.8216 1.875 16.9062L2.5 29.4062C2.50802 29.5665 2.5774 29.7176 2.69375 29.8281C2.8101 29.9387 2.96451 30.0002 3.125 30H3.4375L3.75 36.9038C3.7574 37.0645 3.8265 37.2162 3.94292 37.3272C4.05934 37.4383 4.2141 37.5002 4.375 37.5H19.375C19.5359 37.5002 19.6907 37.4383 19.8071 37.3272C19.9235 37.2162 19.9926 37.0645 20 36.9038L20.3156 30H20.625C20.7855 30.0002 20.9399 29.9387 21.0562 29.8281C21.1726 29.7176 21.242 29.5665 21.25 29.4062L21.875 16.9062C21.8792 16.8216 21.8662 16.7369 21.8367 16.6575C21.8072 16.578 21.7618 16.5054 21.7034 16.444C21.6449 16.3826 21.5746 16.3337 21.4966 16.3004C21.4187 16.267 21.3348 16.2499 21.25 16.25H20.9375L21.2238 10H21.875C22.3723 10 22.8492 9.80246 23.2008 9.45083C23.5525 9.09919 23.75 8.62228 23.75 8.125V6.875C23.75 6.37772 23.5525 5.90081 23.2008 5.54917C22.8492 5.19754 22.3723 5 21.875 5ZM3.75 2.75875L5.25875 1.25H18.5L20 2.7575V5H3.75V2.75875ZM18.7781 36.25H4.97188L4.6875 30H19.0625L18.7781 36.25ZM20.0281 28.75H3.71562L3.15313 17.5H20.5906L20.0281 28.75ZM19.6875 16.25H4.06562L3.77938 10H19.9706L19.6875 16.25ZM22.5 8.125C22.5 8.29076 22.4342 8.44973 22.3169 8.56694C22.1997 8.68415 22.0408 8.75 21.875 8.75H1.875C1.70924 8.75 1.55027 8.68415 1.43306 8.56694C1.31585 8.44973 1.25 8.29076 1.25 8.125V6.875C1.25 6.70924 1.31585 6.55027 1.43306 6.43306C1.55027 6.31585 1.70924 6.25 1.875 6.25H21.875C22.0408 6.25 22.1997 6.31585 22.3169 6.43306C22.4342 6.55027 22.5 6.70924 22.5 6.875V8.125Z" fill="black"/>
<path d="M11.875 27.5C13.625 27.5 15 25.5781 15 23.125C15 20.6719 13.625 18.75 11.875 18.75C10.125 18.75 8.75 20.6719 8.75 23.125C8.75 25.5781 10.125 27.5 11.875 27.5ZM11.875 20C12.8913 20 13.75 21.4313 13.75 23.125C13.75 24.4544 13.2188 25.61 12.5 26.0512V23.75H11.25V26.0512C10.5312 25.61 10 24.4544 10 23.125C10 21.4313 10.8587 20 11.875 20Z" fill="black"/>
<path d="M11.25 21.25H12.5V22.5H11.25V21.25Z" fill="black"/>
</svg>
