<svg width="27" height="40" viewBox="0 0 27 40" fill="none" xmlns="http://www.w3.org/2000/svg">
<path d="M16.0058 38.858L14.0625 38.2104V25.7181C14.7867 24.978 15.2343 23.9664 15.2343 22.8516V19.6146C15.8685 19.0472 16.2887 18.262 16.4013 17.4179C16.4047 17.3923 16.4062 17.3663 16.4062 17.3407V15.0412C16.4062 13.8568 15.4425 12.8931 14.2578 12.8931H13.9969C14.7598 12.1478 15.2343 11.109 15.2343 9.96094V7.61719C15.2343 6.02264 14.3191 4.63867 12.987 3.96057C13.5278 3.46039 13.8672 2.74597 13.8672 1.95312C13.8672 0.87616 12.991 0 11.914 0C11.6424 0 11.3778 0.0558472 11.1328 0.163269C10.888 0.0558472 10.6231 0 10.3515 0C9.27457 0 8.39841 0.87616 8.39841 1.95312C8.39841 2.74597 8.73807 3.46069 9.27885 3.96057C7.94645 4.63867 7.03123 6.02264 7.03123 7.61719V9.96094C7.03123 11.109 7.50608 12.1478 8.26871 12.8931H8.00779C7.02635 12.8931 6.19718 13.5547 5.94145 14.4553H1.7578C1.43492 14.4553 1.17186 14.1925 1.17186 13.8696C1.17186 13.5464 1.43492 13.2837 1.7578 13.2837H2.92967C3.25346 13.2837 3.51561 13.0212 3.51561 12.6978C3.51561 12.374 3.25346 12.1118 2.92967 12.1118H1.7578C0.788558 12.1118 0.000289917 12.9004 0.000289917 13.8696C0.000289917 14.8386 0.788558 15.6271 1.7578 15.6271H5.85935V17.3407C5.85935 17.3663 5.86119 17.3923 5.86454 17.4179C5.97715 18.262 6.39707 19.0472 7.03123 19.6146V22.8516C7.03123 23.9664 7.47892 24.978 8.2031 25.7181V38.2104L6.26005 38.858C5.95304 38.9603 5.78733 39.2923 5.88957 39.5993C5.97135 39.8447 6.19993 40 6.44529 40C6.50663 40 6.56919 39.9902 6.63053 39.9698L8.97428 39.1885C9.21354 39.1089 9.37498 38.8849 9.37498 38.6328V26.5564C9.90812 26.8103 10.5041 26.9531 11.1328 26.9531C11.7614 26.9531 12.3575 26.8103 12.8906 26.5564V38.6328C12.8906 38.8849 13.052 39.1089 13.2913 39.1885L15.635 39.9698C15.6964 39.9902 15.7589 40 15.8203 40C16.0656 40 16.2942 39.8447 16.376 39.5993C16.4785 39.2923 16.3128 38.9603 16.0058 38.858ZM9.57029 1.95312C9.57029 1.52222 9.92093 1.17188 10.3515 1.17188C10.5114 1.17188 10.6656 1.2204 10.7974 1.31256C10.9988 1.45325 11.2668 1.45325 11.4685 1.31256C11.6 1.2204 11.7541 1.17188 11.914 1.17188C12.3449 1.17188 12.6953 1.52222 12.6953 1.95312C12.6953 2.81464 11.9946 3.51562 11.1328 3.51562C10.2713 3.51562 9.57029 2.81464 9.57029 1.95312ZM11.1328 4.6875C12.7484 4.6875 14.0625 6.00159 14.0625 7.61719V7.8125H12.8799C12.4383 7.31842 11.806 7.03125 11.1328 7.03125C10.4599 7.03125 9.82755 7.31842 9.38596 7.8125H8.2031V7.61719C8.2031 6.00159 9.51749 4.6875 11.1328 4.6875ZM8.2031 9.96094V8.98438H9.6713C9.86692 8.98438 10.0494 8.88672 10.1584 8.72437C10.3769 8.39783 10.7412 8.20312 11.1328 8.20312C11.5246 8.20312 11.889 8.39783 12.1075 8.72437C12.2165 8.88672 12.399 8.98438 12.5946 8.98438H14.0625V9.96094C14.0625 11.5762 12.7484 12.8906 11.1328 12.8906C9.51749 12.8906 8.2031 11.5762 8.2031 9.96094ZM8.00779 14.0646H14.2578C14.7964 14.0646 15.2343 14.5029 15.2343 15.0412V17.2995C15.1419 17.9196 14.8016 18.4903 14.2965 18.8696C14.1491 18.9804 14.0625 19.1541 14.0625 19.3381V22.2656H8.2031V19.3381C8.2031 19.1541 8.11643 18.9804 7.96903 18.8696C7.46427 18.4906 7.124 17.9199 7.03123 17.2995V15.0412C7.03123 14.5029 7.46946 14.0646 8.00779 14.0646ZM8.26231 23.4375H14.0036C13.7314 24.7729 12.5479 25.7812 11.1331 25.7812C9.71799 25.7812 8.53452 24.7729 8.26231 23.4375Z" fill="black"/>
<path d="M0.889265 3.49457C0.889876 3.4961 0.890486 3.49793 0.891096 3.49976L1.87224 6.60706C1.44743 6.92841 1.17186 7.43775 1.17186 8.01026C1.17186 8.77411 1.66197 9.42536 2.34373 9.66736V10.354C2.34373 10.6775 2.60618 10.9399 2.92967 10.9399C3.25346 10.9399 3.51561 10.6775 3.51561 10.354V9.66736C4.19768 9.42536 4.68748 8.77411 4.68748 8.01026C4.68748 7.43775 4.41252 6.92841 3.98741 6.60706L4.96885 3.49884C4.96947 3.49762 4.96977 3.4964 4.97008 3.49518L5.8325 0.764774C5.92985 0.456242 5.75865 0.126957 5.45012 0.0296059C5.14128 -0.0680504 4.8123 0.103153 4.71495 0.411991L3.9807 2.73682H1.87926L1.1447 0.411686C1.04735 0.103153 0.718367 -0.06744 0.409529 0.0296059C0.100996 0.126957 -0.0702074 0.456242 0.0274489 0.764774L0.889265 3.49457ZM2.92967 8.5962C2.60679 8.5962 2.34373 8.33313 2.34373 8.01026C2.34373 7.68708 2.60679 7.42432 2.92967 7.42432C3.25285 7.42432 3.51561 7.68708 3.51561 8.01026C3.51561 8.33313 3.25285 8.5962 2.92967 8.5962ZM3.61052 3.9087L2.92967 6.06446L2.24913 3.9087H3.61052Z" fill="black"/>
<path d="M25.1953 12.8931H22.2656V11.6876C24.8987 11.3953 26.9531 9.15741 26.9531 6.44775C26.9531 6.12396 26.691 5.86182 26.3672 5.86182C24.328 5.86182 22.5567 7.02606 21.6797 8.72406C20.8026 7.02606 19.0314 5.86182 16.9922 5.86182C16.6687 5.86182 16.4062 6.12396 16.4062 6.44775C16.4062 9.15741 18.461 11.3953 21.0937 11.6876V12.8931H18.164C17.8406 12.8931 17.5781 13.1552 17.5781 13.479V15.8228C17.5781 15.8707 17.5839 15.9183 17.5958 15.9647L18.7677 20.6522C18.8327 20.9131 19.0671 21.0962 19.3359 21.0962H21.0937V24.7125C20.412 24.9542 19.9219 25.6058 19.9219 26.3696V28.7134C19.9219 29.0369 20.1843 29.2993 20.5078 29.2993C20.8316 29.2993 21.0937 29.0369 21.0937 28.7134V28.1274H22.2656V28.7134C22.2656 29.0369 22.5281 29.2993 22.8515 29.2993C23.1753 29.2993 23.4375 29.0369 23.4375 28.7134V26.3696C23.4375 25.6058 22.9477 24.9542 22.2656 24.7125V21.0962H24.0234C24.2923 21.0962 24.5267 20.9131 24.592 20.6522L25.7638 15.9647C25.7754 15.9183 25.7812 15.8707 25.7812 15.8228V13.479C25.7812 13.1552 25.5191 12.8931 25.1953 12.8931ZM25.7321 7.08282C25.4584 8.83698 24.0689 10.2264 22.3147 10.5002C22.5885 8.74603 23.978 7.35657 25.7321 7.08282ZM17.6272 7.08282C19.3814 7.35657 20.7709 8.74603 21.0446 10.5002C19.2905 10.2264 17.901 8.83698 17.6272 7.08282ZM21.0937 26.9556V26.3696C21.0937 26.0464 21.3565 25.7837 21.6797 25.7837C22.0029 25.7837 22.2656 26.0464 22.2656 26.3696V26.9556H21.0937ZM24.6094 14.0649V15.2368H18.75V14.0649H24.6094ZM23.566 19.9243H19.7934L18.9145 16.4087H24.4449L23.566 19.9243Z" fill="black"/>
</svg>
